Coordinates
version=1
nRows=16
nColumns=36
inDegrees=yes

Units are S.I. units (second, meters, Newtons, ...)
If the header above contains a line with 'inDegrees', this indicates whether rotational values are in degrees (yes) or radians (no).

endheader
time	pelvis_tilt	pelvis_list	pelvis_rotation	pelvis_tx	pelvis_ty	pelvis_tz	hip_flexion_r	hip_adduction_r	hip_rotation_r	knee_angle_r	knee_angle_r_beta	ankle_angle_r	subtalar_angle_r	mtp_angle_r	hip_flexion_l	hip_adduction_l	hip_rotation_l	knee_angle_l	knee_angle_l_beta	ankle_angle_l	subtalar_angle_l	mtp_angle_l	lumbar_extension	lumbar_bending	lumbar_rotation	arm_flex_r	arm_add_r	arm_rot_r	elbow_flex_r	pro_sup_r	arm_flex_l	arm_add_l	arm_rot_l	elbow_flex_l	pro_sup_l
      1.91666670	     -2.27428338	     -3.36576880	      9.79138019	      0.37032949	      0.95849698	     -0.12205625	     11.50861068	     -2.61140313	     -1.74728831	     11.17864417	      0.19510415	      5.15308955	    -10.18871033	     -7.49783671	     11.54206049	     -5.91665310	     -2.64391467	     11.83396959	      0.20654173	      5.28130430	     -7.32882454	     -7.49783671	     -0.16030659	      1.08882010	      3.36630662	     47.79762104	      7.98057316	     69.82125561	    113.50724517	     81.14669122	     41.54147664	      1.83889369	     62.82390323	    128.69897387	     72.47752001
      1.93333330	     -1.71877955	     -3.23008227	      9.57279001	      0.37366265	      0.95947963	     -0.12602571	      9.94183718	     -2.65636135	     -1.59808885	     10.11239587	      0.17649460	      5.23101537	     -9.74808831	     -7.49786247	     10.01031956	     -5.80102700	     -2.95139663	     10.78914294	      0.18830607	      5.97655582	     -6.35489166	     -7.49786247	      0.04209519	      1.04538470	      3.08705954	     47.32926367	      8.21275632	     70.64852235	    113.94879898	     81.10718375	     40.57705405	      2.14417450	     62.86287771	    129.06500154	     72.16005993
      1.95000000	     -1.46851981	     -3.04618220	      9.43185674	      0.37313207	      0.95906682	     -0.12489408	      8.90169432	     -2.82460077	     -1.64284172	      9.07903476	      0.15845905	      5.53880268	     -9.26738360	     -7.49793740	      8.87112727	     -5.66059693	     -3.54361312	      9.69535838	      0.16921593	      6.60163064	     -5.49320854	     -7.49793740	      0.19524831	      0.91335704	      2.92558896	     47.03117560	      8.40480960	     71.13689964	    114.15129085	     81.52148718	     40.50416943	      2.91075324	     63.34309013	    129.13734338	     72.26425076
      1.96666670	     -1.26738219	     -2.92269338	      9.25512695	      0.37220745	      0.96007456	     -0.12450616	      8.00068263	     -2.94004582	     -1.68437395	      8.12097738	      0.14173779	      5.40535259	     -8.96269546	     -7.49801780	      8.13115888	     -5.58851521	     -3.78929660	      8.93940580	      0.15602206	      6.83820466	     -5.25530650	     -7.49801780	      0.38978592	      0.83925093	      3.05984855	     47.17594244	      8.50246124	     71.47450645	    114.17230009	     80.82139048	     40.71384052	      3.66454256	     64.19780435	    129.05712379	     71.75449300
      1.98333330	     -0.98563926	     -2.79251298	      9.19274842	      0.37658359	      0.96034650	     -0.12763508	      7.05372211	     -3.08860061	     -1.79623443	      7.28806682	      0.12720076	      5.27410107	     -8.56653446	     -7.49816691	      7.25661236	     -5.44256361	     -4.00606288	      8.21065523	      0.14330297	      6.97450093	     -4.83838812	     -7.49816691	      0.64732898	      0.86283490	      3.61620912	     46.90155651	      8.23601086	     71.27668895	    113.77224266	     80.05655094	     40.66996553	      3.92005989	     65.20003259	    128.90705659	     71.26164790
      2.00000000	     -0.72197707	     -2.69374584	      8.93536485	      0.38078763	      0.95938998	     -0.12468364	      6.19510743	     -3.13110081	     -1.98925691	      6.50839050	      0.11359284	      5.40600887	     -7.82502748	     -7.49829677	      6.50238850	     -5.44227135	     -4.45417927	      7.68857837	      0.13419101	      7.40460823	     -4.15571382	     -7.49829677	      0.87149254	      0.75458747	      3.93630104	     46.39218654	      8.00200448	     71.10553431	    113.87952587	     81.66848039	     40.72226718	      4.21628232	     65.94436929	    128.65210619	     72.01348974
      2.01666670	     -0.75575420	     -2.66071878	      8.84323121	      0.37539179	      0.95864946	     -0.12691223	      5.91966951	     -3.22310356	     -1.93863362	      5.91884968	      0.10330341	      5.39763700	     -7.69557413	     -7.49830396	      6.28985616	     -5.30617995	     -4.25555373	      7.22185758	      0.12604519	      7.59217905	     -4.07274241	     -7.49830396	      1.46688070	      1.00962398	      4.51161373	     46.51689911	      7.56653908	     70.97740600	    113.67456415	     81.73168924	     40.69828104	      3.69296499	     66.06800035	    128.68284592	     72.05930710
      2.03333330	     -0.51064184	     -2.53784095	      8.62022773	      0.37498067	      0.96176624	     -0.12633669	      5.38320592	     -3.34665520	     -1.83485399	      5.29023128	      0.09233195	      5.37045462	     -7.00944677	     -7.49862210	      5.72888739	     -5.18869764	     -4.39749867	      6.74020004	      0.11763868	      7.67391969	     -3.82660825	     -7.49862210	      1.50206796	      0.94988356	      5.45594953	     46.06698117	      6.88721981	     70.04909270	    113.38156157	     82.98722465	     41.35838797	      3.70104892	     66.77563322	    127.87865805	     72.38724517
      2.05000000	     -0.40778972	     -2.48268837	      8.40420689	      0.37491777	      0.96396731	     -0.12599016	      5.15045249	     -3.40062906	     -1.72432146	      4.94784619	      0.08635621	      5.27016260	     -6.48563237	     -7.49883360	      5.45674042	     -5.11706010	     -4.39899128	      6.46447028	      0.11282629	      7.59130930	     -3.84986972	     -7.49883360	      1.58530878	      1.12689175	      5.88666260	     46.18400543	      6.65153631	     69.91693300	    112.65746052	     81.36519342	     41.24285989	      3.39571824	     66.72362290	    127.42884319	     71.33571976
      2.06666670	     -0.33051511	     -2.47434301	      8.31247321	      0.37965421	      0.96251472	     -0.12322725	      4.92491702	     -3.32769300	     -1.51068110	      4.67485731	      0.08159165	      5.21262913	     -6.36544486	     -7.49883795	      5.29617319	     -5.16235272	     -4.28162142	      6.46246795	      0.11279134	      7.67123452	     -3.82886648	     -7.49883795	      1.62771773	      1.13369274	      6.24877976	     46.28175440	      6.55460823	     69.73506445	    112.35418856	     81.44687523	     40.78885715	      3.28975809	     66.91148788	    127.27039082	     71.40172996
      2.08333330	     -0.09610890	     -2.45132441	      8.16705439	      0.37471391	      0.96140120	     -0.12558130	      4.62737615	     -3.31930094	     -1.35766115	      4.48163564	      0.07821930	      5.09111209	     -6.23737223	     -7.49907191	      4.98111170	     -5.18160322	     -4.45958910	      6.32596337	      0.11040889	      7.82668584	     -3.71393640	     -7.49907191	      1.44128812	      1.12875757	      6.46984020	     46.25534889	      6.37525477	     68.87597876	    111.87834661	     85.40368748	     41.02476313	      3.54933364	     66.82001385	    126.73242710	     73.87874562
      2.10000000	     -0.01080054	     -2.46306945	      8.17682597	      0.37448616	      0.95677347	     -0.12576946	      4.62450842	     -3.31281114	     -1.28991992	      4.54248651	      0.07928135	      5.13780856	     -6.30712776	     -7.49909130	      4.95740843	     -5.19830043	     -4.34054012	      6.50547293	      0.11354192	      8.02785904	     -4.06660675	     -7.49909130	      1.31998453	      1.15218576	      6.31282800	     46.97996658	      6.24006016	     68.69953095	    111.90963275	     84.27812007	     41.54933298	      4.11046512	     66.69898752	    126.63210463	     73.30420847
      2.11666670	     -0.03246988	     -2.46462618	      8.09330632	      0.37474095	      0.95719424	     -0.12554364	      4.76444138	     -3.34312540	     -1.07855599	      4.73524718	      0.08264565	      5.21468093	     -6.36563085	     -7.49918830	      5.08312953	     -5.20221716	     -4.28776686	      6.77693897	      0.11827990	      8.08360862	     -4.40804928	     -7.49918830	      1.33764537	      1.19179600	      6.15488093	     47.22953825	      6.34650677	     68.50455359	    111.78906978	     83.18277305	     41.77652777	      4.35778829	     66.53743025	    126.77069457	     72.59301669
      2.13333330	      0.05417819	     -2.48524549	      8.06333007	      0.37445109	      0.95770386	     -0.12564135	      4.86011178	     -3.32783601	     -0.90255320	      4.97832081	      0.08688809	      5.24748207	     -6.57781206	     -7.49922762	      5.09405325	     -5.24351042	     -4.23660336	      7.04786343	      0.12300842	      8.12142293	     -4.81144194	     -7.49922762	      1.11001734	      1.20945583	      5.67225662	     47.70170512	      6.54372364	     68.59279805	    111.72595517	     83.06676251	     42.50487351	      4.74026672	     66.48186890	    126.71367472	     72.47797236
      2.15000000	      0.17373799	     -2.44898286	      7.94325350	      0.37443231	      0.96017038	     -0.13181428	      4.95543128	     -3.49264080	     -0.81140378	      5.30800210	      0.09264211	      5.16824450	     -6.59192535	     -7.49922990	      5.04874379	     -5.11932616	     -4.32078843	      7.32461766	      0.12783869	      8.11920976	     -4.98342416	     -7.49922990	      1.08355614	      1.39232748	      5.43863125	     47.40928854	      6.46523240	     68.71577826	    111.82189721	     83.12287556	     42.49225741	      4.74044802	     66.50881134	    126.67785288	     72.49287555
      2.16666670	     -0.18755316	     -2.48273554	      7.77875754	      0.36996755	      0.95417163	     -0.12779751	      6.04039270	     -3.55175972	     -0.39257088	      6.23373037	      0.10879912	      5.50774978	     -7.20992687	     -7.49938776	      5.84460710	     -5.02272245	     -4.05193491	      8.08541322	      0.14111708	      8.25721798	     -6.02925792	     -7.49938776	      1.47670049	      1.52102662	      5.49154834	     47.47203437	      6.32764732	     68.99412073	    112.70750557	     79.83678523	     42.57178942	      4.47484583	     66.38185324	    127.01915896	     70.63207712
